<?xml version="1.0" encoding="utf-8"?>
<!-- Generator: Adobe Illustrator 27.2.0, SVG Export Plug-In . SVG Version: 6.00 Build 0)  -->
<svg version="1.1" id="Layer_1" xmlns="http://www.w3.org/2000/svg" xmlns:xlink="http://www.w3.org/1999/xlink" x="0px" y="0px"
	 viewBox="0 0 1000 616.4" style="enable-background:new 0 0 1000 616.4;" xml:space="preserve">
<style type="text/css">
	.Drop_x0020_Shadow{fill:none;}
	.Round_x0020_Corners_x0020_2_x0020_pt{fill:#FFFFFF;stroke:#231F20;stroke-miterlimit:10;}
	.Live_x0020_Reflect_x0020_X{fill:none;}
	.Bevel_x0020_Soft{fill:url(#SVGID_1_);}
	.Dusk{fill:#FFFFFF;}
	.Foliage_GS{fill:#FFDD00;}
	.Pompadour_GS{fill-rule:evenodd;clip-rule:evenodd;fill:#44ADE2;}
	.st0{fill:#E81211;}
</style>
<linearGradient id="SVGID_1_" gradientUnits="userSpaceOnUse" x1="0" y1="-152.4972" x2="0.7071" y2="-151.7901">
	<stop  offset="0" style="stop-color:#DEDFE3"/>
	<stop  offset="0.1783" style="stop-color:#DADBDF"/>
	<stop  offset="0.3611" style="stop-color:#CECFD3"/>
	<stop  offset="0.546" style="stop-color:#B9BCBF"/>
	<stop  offset="0.7324" style="stop-color:#9CA0A2"/>
	<stop  offset="0.9181" style="stop-color:#787D7E"/>
	<stop  offset="1" style="stop-color:#656B6C"/>
</linearGradient>
<text transform="matrix(1 0 0 1 -1849.9956 121.9051)" style="font-family:'Lato-Heavy'; font-size:12px;">R</text>
<g>
	<path class="st0" d="M504,200.3c0.4-22.7,0.6-40,1.1-57.4c0.7-26.1,20.4-45.5,46.5-46.2c11.7-0.3,11.8-0.3,18.3,9.1
		c17.7,25.3,26.3,53.4,27,84.2c0.7,31.5-6.4,60.9-23.2,87.7c-1.9,3.1-4,6-6.2,8.9c-2.5,3.5-6,5.2-10.3,5.3
		c-18.6,0.4-34.3-5.8-46.5-20.3c-3.1-3.7-4.2-8.1-4.6-12.7c-0.5-5.1-0.9-10.3-1.1-15.4C504.7,227.4,504.3,211.2,504,200.3z"/>
	<path class="st0" d="M464.1,195.4c0,15.8,0,31.7,0,47.5c0,9.2-2.1,17.8-6.9,25.6c-10.9,17.7-27.3,24.7-47.6,23.4
		c-3.1-0.2-5.5-1.5-7.3-3.9c-9.3-13.1-17.9-26.5-22.5-42.2c-6.1-20.5-9-41.3-7.7-62.7c1.7-29.1,11.5-55.4,28-79.3
		c3.4-5,8.1-7.1,14.1-7c28.9,0.3,48.8,19.6,49.6,48.9c0.4,16.6,0.1,33.2,0.1,49.8C464,195.4,464.1,195.4,464.1,195.4z"/>
	<path class="st0" d="M240.3,397.8c15.2-13.9,33.4-16.5,52.8-13.5c20.3,3.2,36.1,19,39.4,39.3c1.2,7.5,1.6,15.2,1.7,22.8
		c0.3,16.4,0.1,32.8,0.1,49.2c0,5.6-1.8,7.3-7.3,6.6c-10.4-1.5-17.3-7.6-21.1-17.2c-2.6-6.7-3.3-13.7-3.3-20.8
		c-0.1-11.1,0.1-22.1-0.2-33.2c-0.1-3.9-0.6-8.1-1.8-11.8c-2.9-8.6-10.4-14-18.9-14.3c-9-0.3-17.6,4.7-21,13.1
		c-1.7,4.2-2.9,8.8-3,13.3c-0.5,19.1-0.4,38.1-0.5,57.2c0,2.5,0.2,5,0.1,7.4c-0.3,5.1-2.1,6.7-7.3,6.4c-7.5-0.4-13.4-4-17.9-9.9
		c-3.3-4.4-5.3-9.4-5.5-14.8c-0.5-11.2-0.6-22.5-1-33.7c-0.2-6.3-0.3-12.6-1.2-18.8c-1.6-11.1-5.8-14.6-16.9-15.7
		c-1.5-0.2-3-0.3-4.6-0.5c-9.8-0.8-18.4,4.5-20.9,14.1c-1.7,6.2-2.6,12.7-2.8,19.1c-0.4,16.4-0.1,32.8-0.1,49.2c0,1.7,0.1,3.4,0,5.1
		c-0.3,3.9-1.9,5.4-5.7,5.9c-13,1.6-22.4-5.9-23.4-19.1c-0.5-7.4-0.7-14.9-0.8-22.3c-0.2-14.7,0-29.4-0.3-44
		c-0.2-8.6-0.8-17.1-1.5-25.7c-0.4-6,0.9-7.6,6.9-7.2c4.7,0.3,9.1,1.9,12.6,4.9c4.1,3.5,7.6,3.5,12.4,0.9
		c15.3-8.2,31.2-8.1,46.9-1.4C231.1,390.8,235.4,394.5,240.3,397.8z"/>
	<path class="st0" d="M353.7,461.1c0-22.3,0-44.6,0-67c0-1,0-1.9,0-2.9c0.3-5.5,1.8-7.1,7.4-7.1c10.1,0,20.2,0.2,30.3,0.2
		c6.5,0,13-0.2,19.5-0.2c19.1,0,33.3,8.5,42.9,24.8c11.7,19.8,12.6,54.1-3.8,74.9c-9.7,12.3-22,19.2-37.7,19.8
		c-6.7,0.2-13.3,0.1-20-0.1c-6.9-0.2-7.9,0.7-7.9,7.8c0,11.8,0,23.7,0,35.5c0,3.8-0.1,7.6-0.3,11.4c-0.2,4-1.6,5.4-5.3,4.5
		c-11.2-2.5-19.7-8.4-22.8-20c-1.3-4.9-1.9-10.2-2-15.2c-0.2-22.1-0.1-44.3-0.1-66.4C353.9,461.1,353.8,461.1,353.7,461.1z
		 M395.8,404.3c0,0.2-0.1,0.5-0.1,0.7c-2.5,0-5,0-7.4,0c-6,0.1-6.5,0.5-6.5,6.6c-0.1,12.6-0.2,25.2,0.1,37.7
		c0.1,5.1,0.7,10.3,2,15.3c2,7.7,6.5,13.8,14.5,16.4c11.6,3.8,24.9-2,29.6-13.3c6.7-16.1,6.5-32.3-0.1-48.4
		c-2.6-6.4-7.3-10.8-14.1-12.3C407.9,405.6,401.8,405.1,395.8,404.3z"/>
	<path class="st0" d="M805.6,428.1c1.2-10.7-7.7-21.1-18.8-22.1c-6.4-0.6-12.5,1-18.4,3.4c-2.8,1.1-5.6,2.4-8.6,3.2
		c-5.2,1.5-9.8-0.2-13.8-3.6c-3.3-2.9-3.8-5.7-1-9c2.4-2.9,5.1-5.7,8.3-7.8c15.7-10.4,32.9-13.1,50.9-8
		c18.4,5.2,29.2,18.5,33.4,36.5c2.1,9,2.2,18.5,2.6,27.8c0.5,11.6,0.3,23.3,0.5,34.9c0.1,4,0.4,8,0.7,12c0.2,3.5,0.7,7.2-2.6,9.4
		c-3.8,2.5-8.1,2.2-12,0.1c-2-1.1-3.6-2.8-5.3-4.3c-3.9-3.5-3.9-3.5-8-0.2c-7.9,6.4-17.1,8.1-26.9,7.7c-9-0.4-18-2.1-25.9-6.4
		c-13.6-7.5-21.7-19.2-22.1-35c-0.4-15.6,6.9-27.2,20.9-33.9c12.6-6.1,25.9-7.5,39.6-4.7c1.5,0.3,3,0.6,4.5,0.8
		C804.1,428.7,804.6,428.4,805.6,428.1z M788.2,448.5c-4,1.2-9.2,2-13.8,4.1c-6,2.7-8.4,8.1-8,14.6c0.4,6.6,3.9,11,10.1,13.3
		c4,1.5,8.2,1.8,12.4,0.8c11-2.5,19.5-13.2,19.6-24.6c0-3.3-0.9-4.8-4.5-5.6C799.1,449.9,794.2,449.4,788.2,448.5z"/>
	<path class="st0" d="M507.9,457.4c0.2,15.2,11.7,25.4,26.5,24c4.5-0.4,8.9-1.8,13.4-2.8c3.3-0.7,6.7-1.8,10-2.3
		c4.9-0.7,9.1,0.9,12.2,4.8c2.1,2.6,2,4.6,0,7.2c-0.6,0.7-1.3,1.4-2,2.1c-15.6,14.4-43.5,18.6-62.8,9.5c-8.4-4-15.2-9.8-19.2-18.1
		c-11.3-23.2-13.8-47-2.8-71.2c5.4-12,13.7-21.2,26-26.9c19.6-9,49.8-1.2,62.5,19.4c12.9,20.8,0.6,44.7-15.7,51.9
		c-10,4.4-20.4,6-31.3,4.8C519.3,459.1,513.9,458.2,507.9,457.4z M529.2,440.3c5.7,0,11.1-1.6,15.7-5.2c9.2-7.4,7.8-23.6-2.4-28.5
		c-9.5-4.5-21.8-1.8-28.5,6.3c-4.2,5.1-6.3,11.2-7.6,17.6c-0.6,2.9,0.1,4.4,3.4,5.6C516.4,438.4,520.9,439.9,529.2,440.3z"/>
	<path class="st0" d="M84.5,413.3c0-18.7,0-37.4,0-56.1c0-8.5-0.2-8.8-8.2-11.2c-6.8-2.1-11.8-6.1-14.3-12.9c-1.3-3.5-0.1-5.4,3.7-6
		c1.1-0.2,2.3-0.1,3.4-0.1c20,0,40.1,0,60.1,0c7.7,0,9.1,2.5,5.2,9.4c-2.4,4.2-5.9,7-10.3,8.6c-1.6,0.6-3.3,1.1-4.9,1.6
		c-3.6,1-5.5,3.3-5.4,7c0,1.3,0,2.7,0,4c0,37.4,0,74.8,0,112.2c0,0.8,0,1.5,0,2.3c0.1,6.2,0.8,7.1,6.6,9c2.3,0.8,4.7,1.6,6.9,2.7
		c4.2,2.2,7.1,5.7,8.7,10.2c1.4,4.2,0.2,6.2-4.1,6.7c-0.9,0.1-1.9,0.1-2.9,0.1c-19.8,0-39.7-0.1-59.5-0.1c-2.6,0-5.7,0.5-7.3-2.2
		c-1.7-2.9,0.5-5.5,1.9-7.9c2.8-5,7.2-7.7,12.5-9.3c7.6-2.3,7.9-2.7,7.9-10.8C84.4,451.5,84.4,432.4,84.5,413.3
		C84.4,413.3,84.5,413.3,84.5,413.3z"/>
	<path class="st0" d="M890.8,411.8c0.5,30.2,1,57.7,1.4,85.1c0.1,5.3-1.2,6.4-6.5,5.6c-13.2-2-21.7-10.3-23.8-23.5
		c-0.4-2.6-0.8-5.3-0.8-8c-0.4-21.4-1-42.7-0.9-64.1c0.1-19.6,0.8-39.3,1.8-58.9c0.6-12.6,11-22.2,23.2-22.5c5.7-0.1,7.1,1.3,7,7.1
		C891.7,360,891.2,387.3,890.8,411.8z"/>
	<path class="st0" d="M592.3,444.4c0-17,0-33.9,0-50.9c0-9.7,1.8-11.3,11.1-9.2c2.9,0.7,5.9,1.9,8.3,3.6c3.6,2.5,6.8,2.7,10.6,0.7
		c6.6-3.6,13.8-5.5,21.3-6c10.7-0.6,20.8,1.6,30.6,5.7c4.2,1.7,4.7,3.7,2.5,7.6c-2.6,4.5-6.3,7.7-11.6,8.5
		c-3.4,0.5-6.8,0.5-10.2,0.7c-1.1,0.1-2.3,0-3.4,0c-16.4,0-25.7,8.3-27.1,24.7c-0.6,6.8-0.3,13.7-0.5,20.6
		c-0.2,8.4-0.3,16.8-0.9,25.1c-1.2,14.2-10.5,24.7-23.6,27.3c-6.1,1.2-7.2,0.3-7.2-5.7c0-17.5,0-35.1,0-52.6
		C592.2,444.4,592.3,444.4,592.3,444.4z"/>
	<path class="st0" d="M718,444c0,16.8,0,33.5,0,50.3c0,1.1,0.1,2.3,0,3.4c-0.3,4.5-1.7,5.7-6.3,4.9c-11.1-1.8-18.9-7.8-22.6-18.6
		c-1.2-3.5-1.9-7.5-1.9-11.2c-0.1-21.3-0.2-42.7,0.3-64c0.3-14.6,8.4-23.1,21.9-24.9c7-0.9,8.7,0.5,8.7,7.4
		C718,408.9,718,426.4,718,444C718,444,718,444,718,444z"/>
	<path class="st0" d="M550.5,86.3c-44.3,0-87.9,0-131.6,0c5.5-12.6,36.4-26.8,60.3-28.2C506.9,56.5,537.6,68.8,550.5,86.3z"/>
	<path class="st0" d="M419.3,303c1.5-0.4,2.6-0.8,3.6-0.8c20.3-1,121.5-0.3,126.7,1c-0.6,1.2-0.8,2.5-1.6,3.3
		c-3.1,2.8-6.1,5.8-9.6,8c-16.8,10.5-35.1,16.5-55.2,16.5c-24.2,0-44.4-9.4-62-25.4C420.6,305.1,420.2,304.2,419.3,303z"/>
	<path class="st0" d="M705.6,368.7c-10.8,0.1-19.7-8.7-19.8-19.5c0-10.7,9-19.7,19.6-19.7c10.4,0.1,19.3,8.8,19.4,19.3
		C725.1,359.6,716.4,368.5,705.6,368.7z"/>
	<g>
		<path class="st0" d="M695.3,545.3c0.1,0.6,0.2,1.1,0.4,1.5c0.2,0.4,0.5,0.7,0.8,1c0.3,0.3,0.7,0.4,1.1,0.5
			c0.4,0.1,0.8,0.2,1.1,0.2c0.5,0,0.9-0.1,1.4-0.2c0.4-0.1,0.8-0.3,1.1-0.6c0.3-0.3,0.6-0.6,0.8-1c0.2-0.4,0.3-0.8,0.3-1.2
			c0-0.6-0.1-1.1-0.3-1.5c-0.2-0.4-0.5-0.7-1-1c-0.4-0.3-0.9-0.5-1.6-0.8s-1.3-0.5-2.1-0.8c-0.5-0.2-1.1-0.4-1.8-0.7
			c-0.7-0.3-1.4-0.7-2-1.2c-0.6-0.5-1.2-1.2-1.7-2c-0.5-0.8-0.7-1.9-0.7-3.2c0-1,0.2-1.9,0.6-2.7c0.4-0.8,0.9-1.6,1.6-2.2
			c0.7-0.6,1.5-1.1,2.4-1.5c0.9-0.4,1.9-0.5,3-0.5c0.8,0,1.6,0.1,2.4,0.4s1.7,0.7,2.4,1.2c0.8,0.6,1.4,1.3,1.9,2.1s0.8,1.9,0.9,3.2
			h-4.9c0-0.5-0.2-1-0.4-1.3c-0.2-0.3-0.4-0.6-0.7-0.8c-0.3-0.2-0.6-0.3-0.9-0.4c-0.3-0.1-0.7-0.1-1-0.1c-0.8,0-1.4,0.2-1.9,0.7
			c-0.5,0.5-0.8,1-0.8,1.8c0,0.5,0.1,1,0.3,1.3c0.2,0.3,0.5,0.6,0.9,0.9c0.4,0.2,0.8,0.5,1.4,0.6c0.5,0.2,1.1,0.4,1.8,0.6
			c0.5,0.2,1.2,0.4,2,0.7c0.8,0.3,1.5,0.7,2.3,1.3c0.7,0.6,1.3,1.3,1.8,2.2c0.5,0.9,0.8,2,0.8,3.3c0,1.3-0.2,2.5-0.7,3.4
			c-0.5,1-1.1,1.8-2,2.4c-0.8,0.6-1.7,1.1-2.7,1.4c-1,0.3-2,0.5-3,0.5c-0.8,0-1.7-0.1-2.7-0.4c-1-0.3-1.9-0.7-2.7-1.3
			c-0.8-0.6-1.5-1.4-2.1-2.3c-0.6-0.9-0.9-2.1-1-3.4H695.3z"/>
		<path class="st0" d="M712.3,528h4.8v24.3h-4.8V528z"/>
		<path class="st0" d="M723.9,528h5.5l10.8,17.6h0.1V528h4.8v24.3h-5.4l-10.9-17.6h-0.1v17.6h-4.8V528z"/>
		<path class="st0" d="M776,545.5c-0.5,1.1-1.2,2.1-2,3c-0.8,0.9-1.8,1.7-2.9,2.3c-1.1,0.6-2.2,1.1-3.4,1.4
			c-1.2,0.3-2.5,0.5-3.7,0.5c-1.9,0-3.6-0.3-5.3-1c-1.7-0.7-3.1-1.6-4.3-2.8c-1.2-1.2-2.2-2.5-2.9-4.1c-0.7-1.5-1.1-3.2-1.1-4.9
			c0-1.7,0.3-3.3,1-4.8c0.7-1.5,1.6-2.9,2.9-4c1.2-1.1,2.7-2.1,4.3-2.7c1.6-0.7,3.4-1,5.3-1c1.1,0,2.2,0.1,3.4,0.4
			c1.2,0.3,2.3,0.7,3.4,1.3c1.1,0.6,2.1,1.4,3.1,2.3c1,0.9,1.7,2.1,2.4,3.4h-5.5c-0.9-1-2-1.8-3.1-2.4c-1.1-0.6-2.4-0.9-3.9-0.9
			c-1.1,0-2.1,0.2-3.1,0.6c-1,0.4-1.9,1-2.7,1.8c-0.8,0.8-1.4,1.6-1.9,2.7c-0.5,1-0.7,2.1-0.7,3.3c0,1.1,0.2,2.2,0.7,3.2
			c0.5,1,1.1,1.9,1.9,2.7c0.8,0.8,1.7,1.4,2.8,1.8c1,0.5,2.1,0.7,3.3,0.7c0.9,0,1.6-0.1,2.3-0.3c0.7-0.2,1.3-0.5,1.8-0.8
			c0.5-0.3,1-0.6,1.4-1c0.4-0.3,0.7-0.7,1-1H776z"/>
		<path class="st0" d="M780.5,528h14v4.2h-9.2v5.9h8.8v4.2h-8.8v5.7h9.2v4.2h-14V528z"/>
		<path class="st0" d="M818.1,532.1h-3.3V528h8v24.3h-4.7V532.1z"/>
		<path class="st0" d="M835.5,552.3l5.8-8.2c-0.2,0-0.4,0.1-0.6,0.1c-0.2,0-0.4,0-0.7,0c-0.9,0-1.8-0.2-2.8-0.6
			c-0.9-0.4-1.8-0.9-2.5-1.6c-0.7-0.7-1.3-1.5-1.8-2.5c-0.5-1-0.7-2.1-0.7-3.3c0-1.3,0.2-2.5,0.7-3.5c0.5-1.1,1.2-2,2-2.8
			c0.8-0.8,1.8-1.4,2.9-1.8c1.1-0.4,2.2-0.6,3.4-0.6c1.2,0,2.3,0.2,3.4,0.6c1.1,0.4,2.1,1,2.9,1.7c0.8,0.8,1.5,1.7,2,2.7
			c0.5,1.1,0.8,2.3,0.8,3.6c0,0.4,0,0.9-0.1,1.4c-0.1,0.5-0.2,1-0.5,1.6c-0.2,0.5-0.4,1-0.7,1.4c-0.2,0.4-0.5,0.9-0.8,1.3l-7.3,10.3
			H835.5z M845.7,536.1c0-0.6-0.1-1.2-0.3-1.7c-0.2-0.5-0.5-1-0.9-1.4c-0.4-0.4-0.8-0.7-1.4-0.9c-0.5-0.2-1.1-0.3-1.7-0.3
			c-0.7,0-1.3,0.1-1.9,0.4c-0.6,0.3-1,0.6-1.4,1c-0.4,0.4-0.6,0.9-0.8,1.3c-0.2,0.5-0.3,1-0.3,1.5c0,0.6,0.1,1.2,0.3,1.7
			s0.5,1,0.9,1.3c0.4,0.4,0.9,0.7,1.4,0.9c0.5,0.2,1.1,0.3,1.8,0.3c0.7,0,1.3-0.1,1.9-0.4c0.5-0.3,1-0.6,1.4-1
			c0.4-0.4,0.6-0.8,0.8-1.3C845.6,537,845.7,536.5,845.7,536.1z"/>
		<path class="st0" d="M857.4,528h11.8v4.1H861l-0.8,4.5c0.5-0.2,1.1-0.4,1.6-0.5c0.6-0.1,1.1-0.2,1.7-0.2c1.2,0,2.3,0.2,3.3,0.7
			c1,0.5,1.9,1.1,2.6,1.9c0.7,0.8,1.3,1.7,1.7,2.7c0.4,1,0.6,2.1,0.6,3.1c0,1.1-0.2,2.2-0.7,3.2c-0.4,1-1.1,1.9-1.9,2.7
			c-0.8,0.8-1.7,1.4-2.9,1.9c-1.1,0.5-2.3,0.7-3.7,0.7c-1.2,0-2.3-0.2-3.3-0.6s-2-1-2.8-1.7c-0.8-0.7-1.5-1.5-2-2.5
			c-0.5-0.9-0.8-1.9-0.8-3h4.7c0.1,0.7,0.4,1.3,0.7,1.7c0.3,0.5,0.7,0.8,1,1.1c0.4,0.3,0.8,0.5,1.2,0.6c0.4,0.1,0.8,0.2,1.2,0.2
			c0.8,0,1.4-0.1,2-0.4c0.6-0.3,1-0.6,1.4-1c0.4-0.4,0.6-0.9,0.8-1.4c0.2-0.5,0.3-1,0.3-1.5c0-0.5-0.1-1-0.3-1.5
			c-0.2-0.5-0.5-1-0.9-1.4c-0.4-0.4-0.8-0.7-1.4-1c-0.6-0.3-1.2-0.4-1.8-0.4c-0.5,0-0.9,0.1-1.3,0.2c-0.4,0.1-0.7,0.3-1,0.4
			c-0.3,0.2-0.5,0.4-0.7,0.6c-0.2,0.2-0.4,0.4-0.5,0.6l-4.2-1.1L857.4,528z"/>
		<path class="st0" d="M886.9,528h3.9v16.5h2.7v4.1h-2.7v3.6h-4.7v-3.6h-11.2V545L886.9,528z M886.1,544.5v-9.1h-0.1l-6.1,9.1H886.1
			z"/>
	</g>
	<g>
		<path class="st0" d="M922.2,312.1c0.4-0.1,0.8-0.4,1.2-0.8c0.3-0.2,0.5-0.5,0.6-0.8c0.2-0.3,0.3-0.6,0.4-0.9
			c0.1-0.3,0.2-0.6,0.2-0.9c0-0.3,0.1-0.6,0.1-0.8c0-0.4,0-0.8-0.1-1.1c-0.1-0.3-0.2-0.7-0.4-1c-0.2-0.3-0.3-0.5-0.5-0.8
			c-0.2-0.2-0.4-0.4-0.6-0.6c-0.4-0.3-0.9-0.6-1.4-0.7c-0.5-0.2-1.2-0.2-2-0.2h-4.4v14.3h2.6v-5.5h0l3.8,5.5h3.2l-3.9-5.3
			C921.5,312.4,921.9,312.3,922.2,312.1z M919.7,310.3H918v-4.4h1.7c0.5,0,0.9,0.1,1.3,0.2c0.3,0.1,0.6,0.3,0.8,0.6
			c0.2,0.2,0.3,0.5,0.4,0.7c0.1,0.3,0.1,0.5,0.1,0.7c0,0.2,0,0.4-0.1,0.7c-0.1,0.3-0.2,0.5-0.4,0.7c-0.2,0.2-0.4,0.4-0.8,0.6
			C920.6,310.2,920.2,310.3,919.7,310.3z"/>
		<path class="st0" d="M919.7,295c-8.5,0-15.4,6.9-15.4,15.4c0,8.5,6.9,15.4,15.4,15.4c8.5,0,15.4-6.9,15.4-15.4
			C935.1,301.9,928.1,295,919.7,295z M919.7,322.7c-6.8,0-12.3-5.5-12.3-12.3c0-6.8,5.5-12.3,12.3-12.3c6.8,0,12.3,5.5,12.3,12.3
			C932,317.2,926.4,322.7,919.7,322.7z"/>
	</g>
</g>
</svg>
